# xmcd
#
# Track frame offsets:
#	150
#	15004
#	27559
#	39548
#	52563
#	66713
#	79387
#	95318
#	109365
#	123394
#	137413
#	149614
#
# Disc length: 2226 seconds
#
# Revision: 1
# Processed by: cddbd v1.5.2PL0 Copyright (c) Steve Scherf et al.
# Submitted via: audiograbber 1.83.01
#
DISCID=a108b00c
DTITLE=Ronny - Mit dem Wind muss ich weiterzieh´n
DYEAR=1975
DGENRE=Country
TTITLE0=Wabash Cannon Ball
TTITLE1=Hinter der verschlossenen Tür (Behind Closed Doors)
TTITLE2=Mary, Oh Mary (Gotta Travel On)
TTITLE3=Mit dem Wind muss ich weiterzieh´n (Wand´ring Star)
TTITLE4=Billy Joe (Don´t Take Your Guns To Town)
TTITLE5=Täumendes Mädchen (Beautiful Dreamer)
TTITLE6=Keiner kann den Kreis durchbrechen (Will The Circle Be Unbroken)
TTITLE7=San Antonio Rose
TTITLE8=Nur noch einmal nach Hause (Detroid City)
TTITLE9=Mir geht´s gut (I Don´t Care If The Sun Don´t Shine)
TTITLE10=Wenn der Schnee liegt auf den Rosen (When The Snow Is On The Roses)
TTITLE11=Adios, my Love
EXTD=
EXTT0=
EXTT1=
EXTT2=
EXTT3=
EXTT4=
EXTT5=
EXTT6=
EXTT7=
EXTT8=
EXTT9=
EXTT10=
EXTT11=
PLAYORDER=
